<svg xmlns="http://www.w3.org/2000/svg" width="115.146" height="115.146" viewBox="0 0 115.146 115.146"><defs><style>.a{opacity:0.2;}.b{fill:none;stroke:#002e5d;stroke-linecap:round;stroke-linejoin:round;stroke-width:3px;}</style></defs><g class="a" transform="translate(1.5 1.499)"><path class="b" d="M16.892,4.5h86.741a12.392,12.392,0,0,1,12.392,12.392v86.741a12.392,12.392,0,0,1-12.392,12.392H16.892A12.392,12.392,0,0,1,4.5,103.633V16.892A12.392,12.392,0,0,1,16.892,4.5Z" transform="translate(-4.5 -4.499)"/><path class="b" d="M29.087,19.794A9.294,9.294,0,1,1,19.794,10.5,9.294,9.294,0,0,1,29.087,19.794Z" transform="translate(14.283 14.284)"/><path class="b" d="M106.633,45.979,75.654,15,7.5,83.154" transform="translate(4.892 28.371)"/></g></svg>