<svg xmlns="http://www.w3.org/2000/svg" width="39.207" height="39.977" viewBox="0 0 39.207 39.977"><defs><style>.a{fill:#fff;}.b,.c,.e{fill:none;}.b{stroke:#fff;}.d,.f{stroke:none;}.f{fill:#fff;}</style></defs><g transform="translate(-767.662 -1844.603)"><g transform="translate(767.662 1844.603)"><path class="a" d="M24.274,0A15.1,15.1,0,0,0,9.341,15.227a15.354,15.354,0,0,0,2.225,7.988L1.007,33.981a3.567,3.567,0,0,0,0,4.969,3.4,3.4,0,0,0,4.873,0L16.44,28.184a14.631,14.631,0,0,0,7.834,2.269A15.1,15.1,0,0,0,39.206,15.227,15.1,15.1,0,0,0,24.274,0ZM4.256,37.294a1.134,1.134,0,0,1-1.624,0,1.189,1.189,0,0,1,0-1.656l6.947-7.083L11.2,30.211Zm8.571-8.739L11.2,26.9l1.736-1.77a15.223,15.223,0,0,0,1.624,1.656Zm11.446-.444A12.776,12.776,0,0,1,11.638,15.227,12.776,12.776,0,0,1,24.274,2.343,12.623,12.623,0,0,1,33.7,6.654a12.828,12.828,0,0,1,3.212,8.574A12.776,12.776,0,0,1,24.274,28.111Z" transform="translate(0 -0.001)"/></g><g transform="translate(-1)"><g class="b" transform="translate(790 1855)"><circle class="d" cx="3" cy="3" r="3"/><circle class="e" cx="3" cy="3" r="2.5"/></g><g class="c" transform="translate(788.049 1860.58)"><path class="d" d="M4.976,0C7.724,0,9.952,1.62,9.952,3.619S7.724,5.511,4.976,5.511,0,5.617,0,3.619,2.228,0,4.976,0Z"/><path class="f" d="M 4.975779056549072 1.000003814697266 C 2.820679187774658 1.000003814697266 0.9999990463256836 2.199243783950806 0.9999990463256836 3.618743896484375 C 0.9999990463256836 3.989893913269043 1.078458786010742 4.147483825683594 1.519338607788086 4.292593955993652 C 2.134219169616699 4.494954109191895 3.136858940124512 4.511713981628418 4.197139263153076 4.511713981628418 C 4.321959018707275 4.511713981628418 4.448369026184082 4.511473655700684 4.576148986816406 4.511223793029785 C 4.707999229431152 4.510973930358887 4.841289043426514 4.510724067687988 4.975779056549072 4.510724067687988 C 5.110359191894531 4.510724067687988 5.243608951568604 4.510973930358887 5.375419139862061 4.511223793029785 C 5.503149032592773 4.511473655700684 5.629518985748291 4.511713981628418 5.754418849945068 4.511713981628418 C 6.814589023590088 4.511713981628418 7.817139148712158 4.494954109191895 8.432119369506836 4.292543888092041 C 8.873079299926758 4.147413730621338 8.951559066772461 3.989833831787109 8.951559066772461 3.618743896484375 C 8.951559066772461 2.199243783950806 7.130879402160645 1.000003814697266 4.975779056549072 1.000003814697266 M 4.975779056549072 3.814697265625e-06 C 7.72382926940918 3.814697265625e-06 9.951559066772461 1.620173931121826 9.951559066772461 3.618743896484375 C 9.951559066772461 5.42458963394165 8.132439613342285 5.511714458465576 5.754424095153809 5.511714458465576 C 5.500623226165771 5.511714458465576 5.24078893661499 5.510724067687988 4.975779056549072 5.510724067687988 C 4.710937023162842 5.510724067687988 4.450782299041748 5.511714458465576 4.197134017944336 5.511714458465576 C 1.818881988525391 5.511714458465576 -9.5367431640625e-07 5.42471170425415 -9.5367431640625e-07 3.618743896484375 C -9.5367431640625e-07 1.620173931121826 2.227728843688965 3.814697265625e-06 4.975779056549072 3.814697265625e-06 Z"/></g></g></g></svg>