<svg xmlns="http://www.w3.org/2000/svg" width="61" height="113.755" viewBox="0 0 61 113.755"><defs><style>.a{fill:#e0e4e9;}.b{opacity:0.2;}.c{fill:none;stroke:#002e5d;stroke-linecap:round;stroke-linejoin:round;}</style></defs><g transform="translate(-564.952 -465.426)"><rect class="a" width="26" height="3" transform="translate(565.952 509.426)"/><rect class="a" width="20" height="3" transform="translate(587.952 529.426)"/><rect class="a" width="19.556" height="2.794" transform="translate(587.909 566.666)"/><rect class="a" width="19.556" height="2.794" transform="translate(587.909 548.227)"/><rect class="a" width="60" height="1" transform="translate(565.952 514.426)"/><rect class="a" width="57" height="1" transform="translate(565.952 516.426)"/><rect class="a" width="36" height="1" transform="translate(587.952 534.426)"/><rect class="a" width="36.319" height="0.559" transform="translate(587.909 572.254)"/><rect class="a" width="36.319" height="0.559" transform="translate(587.909 553.815)"/><rect class="a" width="21" transform="translate(587.952 539.426)"/><rect class="a" width="21.233" transform="translate(587.909 576.724)"/><rect class="a" width="61" height="40" transform="translate(564.952 465.426)"/><rect class="a" width="20.448" height="13.632" transform="translate(565 528.139)"/><rect class="a" width="20.448" height="13.632" transform="translate(565 565.549)"/><rect class="a" width="20.448" height="13.632" transform="translate(565 547.11)"/><rect class="a" width="58" transform="translate(565.952 518.426)"/><rect class="a" width="38" height="1" transform="translate(587.952 536.426)"/><rect class="a" width="37.995" height="0.559" transform="translate(587.909 573.93)"/><rect class="a" width="37.995" height="0.559" transform="translate(587.909 555.491)"/><g class="b" transform="translate(589.627 479.469)"><path class="c" d="M5.82,4.5h9.242a1.32,1.32,0,0,1,1.32,1.32v9.242a1.32,1.32,0,0,1-1.32,1.32H5.82a1.32,1.32,0,0,1-1.32-1.32V5.82A1.32,1.32,0,0,1,5.82,4.5Z" transform="translate(-4.5 -4.5)"/><path class="c" d="M12.48,11.49a.99.99,0,1,1-.99-.99A.99.99,0,0,1,12.48,11.49Z" transform="translate(-7.86 -7.86)"/><path class="c" d="M18.062,18.3l-3.3-3.3L7.5,22.261" transform="translate(-6.18 -10.379)"/></g><g class="b" transform="translate(572.264 532.051)"><path class="c" d="M5.149,4.5h4.54a.649.649,0,0,1,.649.649v4.54a.649.649,0,0,1-.649.649H5.149A.649.649,0,0,1,4.5,9.689V5.149A.649.649,0,0,1,5.149,4.5Z" transform="translate(-4.5 -4.5)"/><path class="c" d="M11.473,10.986a.486.486,0,1,1-.486-.486A.486.486,0,0,1,11.473,10.986Z" transform="translate(-9.203 -9.203)"/><path class="c" d="M12.689,16.622,11.067,15,7.5,18.567" transform="translate(-6.851 -12.73)"/></g><g class="b" transform="translate(572.264 569.46)"><path class="c" d="M5.149,4.5h4.54a.649.649,0,0,1,.649.649v4.54a.649.649,0,0,1-.649.649H5.149A.649.649,0,0,1,4.5,9.689V5.149A.649.649,0,0,1,5.149,4.5Z" transform="translate(-4.5 -4.5)"/><path class="c" d="M11.473,10.986a.486.486,0,1,1-.486-.486A.486.486,0,0,1,11.473,10.986Z" transform="translate(-9.203 -9.203)"/><path class="c" d="M12.689,16.622,11.067,15,7.5,18.567" transform="translate(-6.851 -12.73)"/></g><g class="b" transform="translate(572.264 551.021)"><path class="c" d="M5.149,4.5h4.54a.649.649,0,0,1,.649.649v4.54a.649.649,0,0,1-.649.649H5.149A.649.649,0,0,1,4.5,9.689V5.149A.649.649,0,0,1,5.149,4.5Z" transform="translate(-4.5 -4.5)"/><path class="c" d="M11.473,10.986a.486.486,0,1,1-.486-.486A.486.486,0,0,1,11.473,10.986Z" transform="translate(-9.203 -9.203)"/><path class="c" d="M12.689,16.622,11.067,15,7.5,18.567" transform="translate(-6.851 -12.73)"/></g></g></svg>