<svg xmlns="http://www.w3.org/2000/svg" width="117" height="230" viewBox="0 0 117 230"><defs><style>.a{fill:#fff;}.b{fill:#e0e4e9;}.c{opacity:0.2;}.d{fill:none;stroke:#002e5d;stroke-linecap:round;stroke-linejoin:round;}</style></defs><g transform="translate(-19 -19)"><rect class="a" width="117" height="230" transform="translate(19 19)"/><rect class="b" width="53" height="7" transform="translate(19 115)"/><rect class="b" width="117" height="2" transform="translate(19 132)"/><rect class="b" width="117" height="2" transform="translate(19 183)"/><rect class="b" width="117" height="2" transform="translate(19 157)"/><rect class="b" width="117" height="2" transform="translate(19 208)"/><rect class="b" width="111" height="2" transform="translate(19 138)"/><rect class="b" width="111" height="2" transform="translate(19 189)"/><rect class="b" width="111" height="2" transform="translate(19 164)"/><rect class="b" width="111" height="2" transform="translate(19 214)"/><rect class="b" width="101" height="2" transform="translate(19 151)"/><rect class="b" width="101" height="2" transform="translate(19 202)"/><rect class="b" width="101" height="2" transform="translate(19 176)"/><rect class="b" width="101" height="2" transform="translate(19 227)"/><rect class="b" width="117" height="86" transform="translate(19 19)"/><rect class="b" width="114" height="2" transform="translate(19 145)"/><rect class="b" width="114" height="2" transform="translate(19 195)"/><rect class="b" width="114" height="2" transform="translate(19 170)"/><rect class="b" width="114" height="2" transform="translate(19 221)"/><g class="c" transform="translate(66.688 46.357)"><path class="d" d="M7.01,4.5H24.579a2.636,2.636,0,0,1,2.51,2.747V26.474a2.636,2.636,0,0,1-2.51,2.747H7.01A2.636,2.636,0,0,1,4.5,26.474V7.247A2.636,2.636,0,0,1,7.01,4.5Z" transform="translate(-4.5 -4.5)"/><path class="d" d="M14.265,12.56a1.977,1.977,0,0,1-1.882,2.06A1.977,1.977,0,0,1,10.5,12.56a1.977,1.977,0,0,1,1.882-2.06A1.977,1.977,0,0,1,14.265,12.56Z" transform="translate(-5.48 -5.006)"/><path class="d" d="M27.579,21.867,21.3,15,7.5,30.107" transform="translate(-4.99 -5.386)"/></g></g></svg>