<svg xmlns="http://www.w3.org/2000/svg" width="109.79" height="242.349" viewBox="0 0 109.79 242.349"><defs><style>.a{fill:#e0e4e9;}.b{opacity:0.2;}.c{fill:none;stroke:#002e5d;stroke-linecap:round;stroke-linejoin:round;}</style></defs><g transform="translate(-541.995 -437)"><rect class="a" width="48" height="6" transform="translate(543 516)"/><rect class="a" width="35" height="6" transform="translate(542 587)"/><rect class="a" width="35" height="5" transform="translate(583 623)"/><rect class="a" width="35" height="5" transform="translate(583.202 656.951)"/><rect class="a" width="35" height="6" transform="translate(600 587)"/><rect class="a" width="108" height="1" transform="translate(543 526)"/><rect class="a" width="103" height="1" transform="translate(543 529)"/><rect class="a" width="48" height="1" transform="translate(542 598)"/><rect class="a" width="65" height="1" transform="translate(583 633)"/><rect class="a" width="65" height="1" transform="translate(583.202 666.951)"/><rect class="a" width="48" height="1" transform="translate(600 598)"/><rect class="a" width="38" height="1" transform="translate(542 602)"/><rect class="a" width="38" transform="translate(583 641)"/><rect class="a" width="39" height="1" transform="translate(600 602)"/><rect class="a" width="109" height="73" transform="translate(542 437)"/><rect class="a" width="51.235" height="34.157" transform="translate(541.995 548.896)"/><rect class="a" width="36.596" height="24.398" transform="translate(542.202 621)"/><rect class="a" width="36.596" height="24.398" transform="translate(542.202 654.951)"/><rect class="a" width="51.235" height="34.157" transform="translate(600.55 548.896)"/><rect class="a" width="105" height="1" transform="translate(543 532)"/><rect class="a" width="51" height="1" transform="translate(542 600)"/><rect class="a" width="68" height="1" transform="translate(583 636)"/><rect class="a" width="68" height="1" transform="translate(583.202 669.951)"/><rect class="a" width="51" height="1" transform="translate(600 600)"/><g class="b" transform="translate(586.277 462.895)"><path class="c" d="M6.863,4.5H23.4a2.363,2.363,0,0,1,2.363,2.363V23.4A2.363,2.363,0,0,1,23.4,25.765H6.863A2.363,2.363,0,0,1,4.5,23.4V6.863A2.363,2.363,0,0,1,6.863,4.5Z" transform="translate(-4.5 -4.5)"/><path class="c" d="M14.044,12.272A1.772,1.772,0,1,1,12.272,10.5,1.772,1.772,0,0,1,14.044,12.272Z" transform="translate(-5.774 -5.774)"/><path class="c" d="M26.4,20.907,20.5,15,7.5,28" transform="translate(-5.137 -6.73)"/></g><g class="b" transform="translate(560.66 559.143)"><path class="c" d="M6.045,4.5H16.862a1.545,1.545,0,0,1,1.545,1.545V16.862a1.545,1.545,0,0,1-1.545,1.545H6.045A1.545,1.545,0,0,1,4.5,16.862V6.045A1.545,1.545,0,0,1,6.045,4.5Z" transform="translate(-4.5 -4.5)"/><path class="c" d="M12.818,11.659A1.159,1.159,0,1,1,11.659,10.5,1.159,1.159,0,0,1,12.818,11.659Z" transform="translate(-7.409 -7.409)"/><path class="c" d="M19.862,18.863,16,15,7.5,23.5" transform="translate(-5.955 -9.592)"/></g><g class="b" transform="translate(555.203 628)"><path class="c" d="M5.661,4.5h8.126a1.161,1.161,0,0,1,1.161,1.161v8.126a1.161,1.161,0,0,1-1.161,1.161H5.661A1.161,1.161,0,0,1,4.5,13.786V5.661A1.161,1.161,0,0,1,5.661,4.5Z" transform="translate(-4.5 -4.5)"/><path class="c" d="M12.241,11.371a.871.871,0,1,1-.871-.871A.871.871,0,0,1,12.241,11.371Z" transform="translate(-8.178 -8.178)"/><path class="c" d="M16.786,17.9l-2.9-2.9L7.5,21.384" transform="translate(-6.339 -10.937)"/></g><g class="b" transform="translate(555.203 661.951)"><path class="c" d="M5.661,4.5h8.126a1.161,1.161,0,0,1,1.161,1.161v8.126a1.161,1.161,0,0,1-1.161,1.161H5.661A1.161,1.161,0,0,1,4.5,13.786V5.661A1.161,1.161,0,0,1,5.661,4.5Z" transform="translate(-4.5 -4.5)"/><path class="c" d="M12.241,11.371a.871.871,0,1,1-.871-.871A.871.871,0,0,1,12.241,11.371Z" transform="translate(-8.178 -8.178)"/><path class="c" d="M16.786,17.9l-2.9-2.9L7.5,21.384" transform="translate(-6.339 -10.937)"/></g><g class="b" transform="translate(619.214 559.143)"><path class="c" d="M6.045,4.5H16.862a1.545,1.545,0,0,1,1.545,1.545V16.862a1.545,1.545,0,0,1-1.545,1.545H6.045A1.545,1.545,0,0,1,4.5,16.862V6.045A1.545,1.545,0,0,1,6.045,4.5Z" transform="translate(-4.5 -4.5)"/><path class="c" d="M12.818,11.659A1.159,1.159,0,1,1,11.659,10.5,1.159,1.159,0,0,1,12.818,11.659Z" transform="translate(-7.409 -7.409)"/><path class="c" d="M19.862,18.863,16,15,7.5,23.5" transform="translate(-5.955 -9.592)"/></g></g></svg>