<svg xmlns="http://www.w3.org/2000/svg" xmlns:xlink="http://www.w3.org/1999/xlink" viewBox="0 0 16 16"><defs><linearGradient id="a" x1="11.301" y1="-0.435" x2="11.453" y2="14.468" gradientUnits="userSpaceOnUse"><stop offset="0" stop-color="#ffce00"/><stop offset="0.05" stop-color="#fabb00"/><stop offset="0.201" stop-color="#eb8401"/><stop offset="0.333" stop-color="#e15c01"/><stop offset="0.436" stop-color="#da4401"/><stop offset="0.5" stop-color="#d83b01"/></linearGradient><linearGradient id="b" x1="8.647" y1="-0.006" x2="0.831" y2="11.156" gradientUnits="userSpaceOnUse"><stop offset="0" stop-color="#8c0700"/><stop offset="0.6" stop-color="#c72127"/><stop offset="0.645" stop-color="#ca2b3d"/><stop offset="0.765" stop-color="#d04374"/><stop offset="0.868" stop-color="#d5559c"/><stop offset="0.95" stop-color="#d860b4"/><stop offset="1" stop-color="#d964bd"/></linearGradient><linearGradient id="c" x1="8.806" y1="-0.235" x2="7.151" y2="2.129" gradientUnits="userSpaceOnUse"><stop offset="0" stop-opacity="0.4"/><stop offset="1" stop-opacity="0"/></linearGradient><linearGradient id="d" x1="4.63" y1="13.813" x2="15.354" y2="13.813" gradientUnits="userSpaceOnUse"><stop offset="0" stop-color="#fa2c46"/><stop offset="0.6" stop-color="#b0080b"/></linearGradient><linearGradient id="e" x1="11.921" y1="14.057" x2="7.118" y2="13.637" gradientUnits="userSpaceOnUse"><stop offset="0" stop-opacity="0.4"/><stop offset="1" stop-opacity="0"/></linearGradient></defs><title>Union_16x</title><path d="M8.808.448,10,3.045V12L8.8,15.555l4.1-1.227A1.537,1.537,0,0,0,14,12.854V3.173A1.537,1.537,0,0,0,12.911,1.7Z" fill="url(#a)"/><rect width="16" height="16" fill="none"/><path d="M8.808.448A1.682,1.682,0,0,0,8.314.375h0A1.686,1.686,0,0,0,7.48.6l-4.7,2.675A1.546,1.546,0,0,0,2,4.615v6.614a.77.77,0,0,0,1.135.678l1.223-.658A1.216,1.216,0,0,0,5,10.176V5.728a1.221,1.221,0,0,1,.8-1.146L10,3.045V2.061A1.687,1.687,0,0,0,8.808.448Z" fill="url(#b)"/><path d="M8.808.448A1.682,1.682,0,0,0,8.314.375h0A1.686,1.686,0,0,0,7.48.6l-4.7,2.675A1.546,1.546,0,0,0,2,4.615v6.614a.77.77,0,0,0,1.135.678l1.223-.658A1.216,1.216,0,0,0,5,10.176V5.728a1.221,1.221,0,0,1,.8-1.146L10,3.045V2.061A1.687,1.687,0,0,0,8.808.448Z" fill="url(#c)"/><path d="M10,12H5.12a.957.957,0,0,0-.473,1.789l2.842,1.616a1.678,1.678,0,0,0,.83.22h0A1.678,1.678,0,0,0,10,13.945Z" fill="url(#d)"/><path d="M10,12H5.12a.957.957,0,0,0-.473,1.789l2.842,1.616a1.678,1.678,0,0,0,.83.22h0A1.678,1.678,0,0,0,10,13.945Z" fill="url(#e)"/></svg>