<svg xmlns="http://www.w3.org/2000/svg" xmlns:xlink="http://www.w3.org/1999/xlink" width="256.308" height="232.458" viewBox="0 0 256.308 232.458"><defs><style>.a{fill:#f7f7f7;}.b{fill:#002e5d;}.c{fill:#002e7d;}.d{fill:#ffc247;}.e{fill:#fc9c14;}.f,.l{fill:#fff;}.g{fill:url(#a);}.h{fill:#ffc057;}.i{fill:#fcb43a;}.j{fill:#002d79;stroke:#002e7c;}.k{fill:#0b529b;}.l{stroke:#ffc247;}</style><linearGradient id="a" x1="0.5" x2="0.5" y2="1" gradientUnits="objectBoundingBox"><stop offset="0" stop-color="#00358e"/><stop offset="1" stop-color="#002b74"/></linearGradient></defs><g transform="translate(-985.256 -659.228)"><g transform="translate(985.256 659.228)"><path class="a" d="M1224.188,678.339c-14.732-17.906-40.453-25.483-60.509-12.833-18.876,11.905-27.321,35.216-44.382,49.306-17.888,14.772-37.58,15.547-59.238,12.911-18.668-2.272-39.915-1.915-47.292,19.831-8,23.581,3.8,51.332,18.09,69.511a96.272,96.272,0,0,0,55.378,34.629c43.147,9.369,93.989-6.3,124.73-39.588C1242.744,777.692,1256.3,717.372,1224.188,678.339Z" transform="translate(-1008.117 -659.228)"/><path class="b" d="M1029.333,958.155a44.3,44.3,0,0,1-5.527-.347.45.45,0,1,1,.113-.892,43.381,43.381,0,0,0,5.414.34c1.078,0,2.172-.041,3.251-.121a.46.46,0,0,1,.492.414.441.441,0,0,1-.4.481l-.027,0C1031.549,958.113,1030.432,958.155,1029.333,958.155Zm16.928-3.384a.45.45,0,0,1-.174-.865,43.079,43.079,0,0,0,7.632-4.149.45.45,0,1,1,.507.743,43.989,43.989,0,0,1-7.792,4.236A.449.449,0,0,1,1046.261,954.771Zm-35.832-.935a.449.449,0,0,1-.2-.045,44.352,44.352,0,0,1-7.56-4.638.45.45,0,0,1,.545-.716,43.447,43.447,0,0,0,7.407,4.543.45.45,0,0,1-.2.855Zm53.7-12.9a.45.45,0,0,1-.357-.722,43.436,43.436,0,0,0,4.547-7.4.45.45,0,0,1,.81.391,44.33,44.33,0,0,1-4.641,7.558A.449.449,0,0,1,1064.129,940.932Zm-70.834-1.839a.449.449,0,0,1-.372-.2,44,44,0,0,1-4.24-7.79.45.45,0,0,1,.83-.348,43.092,43.092,0,0,0,4.153,7.63.45.45,0,0,1-.371.7Zm79.412-19.074a.442.442,0,0,1-.057,0,.45.45,0,0,1-.39-.5,43.385,43.385,0,0,0,.342-5.434c0-1.078-.041-2.172-.121-3.251l-.006-.083a.45.45,0,1,1,.9-.068l.006.085c.082,1.1.123,2.217.123,3.317a44.263,44.263,0,0,1-.349,5.548A.45.45,0,0,1,1072.707,920.019Zm-86.876-2.257a.45.45,0,0,1-.448-.416l0-.042c-.082-1.1-.123-2.218-.123-3.318a44.3,44.3,0,0,1,.344-5.506.45.45,0,1,1,.893.112,43.37,43.37,0,0,0-.337,5.393c0,1.078.041,2.172.121,3.251l0,.042a.45.45,0,0,1-.415.482Zm83.813-20.22a.45.45,0,0,1-.415-.275,43.1,43.1,0,0,0-4.16-7.626.45.45,0,1,1,.742-.508,43.98,43.98,0,0,1,4.248,7.786.45.45,0,0,1-.414.624Zm-79.628-1.991a.45.45,0,0,1-.4-.645,44.327,44.327,0,0,1,4.634-7.563.45.45,0,0,1,.716.544,43.432,43.432,0,0,0-4.54,7.409A.45.45,0,0,1,990.016,895.551Zm65.763-15.858a.448.448,0,0,1-.272-.092,43.43,43.43,0,0,0-7.411-4.536.45.45,0,1,1,.39-.81,44.335,44.335,0,0,1,7.565,4.63.45.45,0,0,1-.272.808Zm-51.028-1.284a.45.45,0,0,1-.254-.821,44,44,0,0,1,7.788-4.244.45.45,0,1,1,.348.829,43.087,43.087,0,0,0-7.628,4.157A.449.449,0,0,1,1004.751,878.409Zm30.1-7.263a.453.453,0,0,1-.056,0,43.412,43.412,0,0,0-5.373-.334c-1.078,0-2.172.041-3.251.121l-.063,0a.45.45,0,0,1-.068-.9l.063,0c1.1-.082,2.218-.123,3.318-.123a44.3,44.3,0,0,1,5.484.341.45.45,0,0,1-.055.9Z" transform="translate(-985.256 -852.49)"/><path class="c" d="M3495.881,2657.461a3.317,3.317,0,1,1,3.316-3.317A3.32,3.32,0,0,1,3495.881,2657.461Zm0-5.273a1.956,1.956,0,1,0,1.956,1.956A1.958,1.958,0,0,0,3495.881,2652.188Z" transform="translate(-3285.26 -2486.162)"/><path class="d" d="M1213.71,3219.823h-2.037v-2.872a.578.578,0,0,0-1.156,0v2.872h-2.037a.578.578,0,0,0,0,1.156h2.037v2.872a.578.578,0,1,0,1.156,0v-2.872h2.037a.578.578,0,1,0,0-1.156Z" transform="translate(-1189.495 -3004.948)"/><path class="d" d="M3836.577,1227.682h-3.057v-4.311a.867.867,0,1,0-1.735,0v4.311h-3.057a.867.867,0,0,0,0,1.735h3.057v4.311a.867.867,0,1,0,1.735,0v-4.311h3.057a.867.867,0,1,0,0-1.735Z" transform="translate(-3592.834 -1175.932)"/><path class="b" d="M2284.712,1747.1q-.353,0-.707,0a.4.4,0,0,1,0-.8h0a77.386,77.386,0,0,0,8.069-.35.4.4,0,0,1,.076.792C2289.689,1746.976,2287.183,1747.1,2284.712,1747.1Zm-13.626-1.218a.4.4,0,0,1-.071-.006,77.506,77.506,0,0,1-7.945-1.871.4.4,0,1,1,.223-.764,76.819,76.819,0,0,0,7.863,1.852.4.4,0,0,1-.07.79Zm33.806-1.443a.4.4,0,0,1-.1-.782,77.1,77.1,0,0,0,7.679-2.5.4.4,0,1,1,.285.743,77.88,77.88,0,0,1-7.759,2.521A.4.4,0,0,1,2304.892,1744.435Zm-53.819-5.092a.4.4,0,0,1-.174-.04,78.362,78.362,0,0,1-7.143-3.946.4.4,0,0,1,.421-.676,77.635,77.635,0,0,0,7.07,3.906.4.4,0,0,1-.174.756Zm73.216-3.079a.4.4,0,0,1-.2-.74,76.733,76.733,0,0,0,6.711-4.483.4.4,0,0,1,.476.638,77.584,77.584,0,0,1-6.78,4.53A.4.4,0,0,1,2324.289,1736.265Zm-90.728-8.6a.4.4,0,0,1-.263-.1,78.281,78.281,0,0,1-5.82-5.716.4.4,0,1,1,.587-.538,77.419,77.419,0,0,0,5.76,5.658.4.4,0,0,1-.264.7Zm107.18-4.516a.4.4,0,0,1-.288-.672,77.721,77.721,0,0,0,5.256-6.13.4.4,0,1,1,.63.486,78.376,78.376,0,0,1-5.31,6.193A.4.4,0,0,1,2340.741,1723.144Zm-120.9-11.439a.4.4,0,0,1-.335-.182,77.4,77.4,0,0,1-4.058-7.078.4.4,0,1,1,.71-.359,76.645,76.645,0,0,0,4.017,7,.4.4,0,0,1-.334.614Zm133.224-5.628a.4.4,0,0,1-.351-.585,77.436,77.436,0,0,0,3.419-7.318.4.4,0,1,1,.738.3,78.274,78.274,0,0,1-3.454,7.394A.4.4,0,0,1,2353.061,1706.077Zm-142.113-13.449a.4.4,0,0,1-.38-.281,78.5,78.5,0,0,1-1.99-7.912.4.4,0,1,1,.781-.154,77.8,77.8,0,0,0,1.969,7.831.4.4,0,0,1-.38.515Zm149.39-6.3a.409.409,0,0,1-.086-.009.4.4,0,0,1-.3-.474,76.6,76.6,0,0,0,1.311-7.972.4.4,0,1,1,.791.087,77.386,77.386,0,0,1-1.324,8.055A.4.4,0,0,1,2360.338,1686.323Zm-152.814-14.467a.4.4,0,0,1-.4-.387c-.02-.723-.031-1.455-.031-2.176,0-1.988.078-4,.231-5.98a.4.4,0,0,1,.793.062c-.152,1.96-.229,3.951-.229,5.919,0,.714.01,1.439.03,2.154a.4.4,0,0,1-.387.409Zm154.46-6.521a.4.4,0,0,1-.4-.375,78.026,78.026,0,0,0-.894-8.028l-.019-.114a.4.4,0,1,1,.785-.13l.019.114a79.022,79.022,0,0,1,.9,8.11.4.4,0,0,1-.374.421Zm-152.164-14.4a.4.4,0,0,1-.1-.012.4.4,0,0,1-.288-.483,77.647,77.647,0,0,1,2.409-7.8.4.4,0,0,1,.747.275,76.878,76.878,0,0,0-2.384,7.718A.4.4,0,0,1,2209.82,1650.932Zm148.071-6.363a.4.4,0,0,1-.376-.269,76.688,76.688,0,0,0-3.024-7.487.4.4,0,1,1,.721-.337,77.54,77.54,0,0,1,3.055,7.565.4.4,0,0,1-.376.527ZM2217.7,1631.41a.4.4,0,0,1-.345-.6,78.389,78.389,0,0,1,4.419-6.859.4.4,0,1,1,.646.465,77.686,77.686,0,0,0-4.374,6.789A.4.4,0,0,1,2217.7,1631.41Zm130.689-5.618a.4.4,0,0,1-.327-.171,77.048,77.048,0,0,0-4.94-6.383.4.4,0,1,1,.6-.519,77.811,77.811,0,0,1,4.991,6.45.4.4,0,0,1-.327.625Zm-117.851-11.065a.4.4,0,0,1-.28-.681,78.085,78.085,0,0,1,6.1-5.419.4.4,0,1,1,.5.622,77.245,77.245,0,0,0-6.034,5.363A.4.4,0,0,1,2230.538,1614.727Zm103.62-4.439a.4.4,0,0,1-.254-.092,77.676,77.676,0,0,0-6.478-4.822.4.4,0,1,1,.441-.662,78.394,78.394,0,0,1,6.544,4.871.4.4,0,0,1-.254.7Zm-86.77-8.168a.4.4,0,0,1-.193-.746,77.361,77.361,0,0,1,7.339-3.565.4.4,0,1,1,.309.733,76.67,76.67,0,0,0-7.263,3.529A.394.394,0,0,1,2247.388,1602.12Zm68.893-2.947a.4.4,0,0,1-.162-.035,77.088,77.088,0,0,0-7.538-2.9.4.4,0,0,1,.247-.757,77.9,77.9,0,0,1,7.615,2.934.4.4,0,0,1-.163.761Zm-49.254-4.62a.4.4,0,0,1-.091-.785c1.739-.409,3.518-.764,5.288-1.054.908-.149,1.83-.284,2.741-.4a.4.4,0,1,1,.1.789c-.9.116-1.815.249-2.713.4-1.752.287-3.513.638-5.234,1.043A.394.394,0,0,1,2267.027,1594.553Zm29.042-1.265a.4.4,0,0,1-.058,0,76.637,76.637,0,0,0-8.044-.75.4.4,0,0,1,.032-.8,77.472,77.472,0,0,1,8.128.758.4.4,0,0,1-.057.792Z" transform="translate(-2106.074 -1514.638)"/></g><g transform="translate(1038.973 703.774)"><path class="e" d="M1716.862,1199.2l-66.152,56.833,1.231,25.715c0,3.067,3.7,46.556,7.22,46.556l61.769-41.336,55.656,37.093c3.519,0,10.314-40.414,10.314-43.481l4.114-24.606L1724.8,1199.2A7.12,7.12,0,0,0,1716.862,1199.2Z" transform="translate(-1649.407 -1197.994)"/><rect class="f" width="117.03" height="119.016" rx="58.515" transform="translate(12.783 15.121)"/><circle class="g" cx="21.201" cy="21.201" r="21.201" transform="translate(50.321 37.743)"/><path class="h" d="M2498.158,1494.984a.166.166,0,0,1-.166-.166v-7.529a.166.166,0,0,1,.332,0v7.529A.166.166,0,0,1,2498.158,1494.984Z" transform="translate(-2426.635 -1463.218)"/><path class="h" d="M2494.74,1491.745a.484.484,0,0,1-.126.017h0a.486.486,0,0,1-.485-.485v-7.53a.485.485,0,1,1,.971,0v7.529A.486.486,0,0,1,2494.74,1491.745Z" transform="translate(-2423.092 -1459.675)"/><path class="h" d="M2498.158,2247.489a.166.166,0,0,1-.166-.166v-7.53a.166.166,0,0,1,.332,0v7.53A.166.166,0,0,1,2498.158,2247.489Z" transform="translate(-2426.635 -2153.505)"/><path class="h" d="M2494.742,2244.249a.5.5,0,0,1-.127.017.486.486,0,0,1-.485-.486v-7.529a.485.485,0,1,1,.971,0v7.529a.487.487,0,0,1-.359.469Z" transform="translate(-2423.092 -2149.962)"/><path class="h" d="M2083.9,1909.244h-7.529a.166.166,0,0,1,0-.332h7.529a.166.166,0,0,1,0,.332Z" transform="translate(-2039.723 -1850.133)"/><path class="h" d="M2080.485,1906a.487.487,0,0,1-.126.017h-7.53a.485.485,0,0,1,0-.971h7.53a.485.485,0,0,1,.126.954Z" transform="translate(-2036.18 -1846.591)"/><path class="h" d="M2836.406,1909.237h-7.53a.166.166,0,1,1,0-.332h7.53a.166.166,0,1,1,0,.332Z" transform="translate(-2730.01 -1850.127)"/><path class="h" d="M2832.989,1906a.5.5,0,0,1-.126.017h-7.53a.485.485,0,0,1,0-.971h7.53a.485.485,0,0,1,.126.954Z" transform="translate(-2726.466 -1846.584)"/><path class="h" d="M2199.911,2148.418a.166.166,0,0,1-.118-.284l5.324-5.324a.166.166,0,0,1,.235.235l-5.324,5.324A.167.167,0,0,1,2199.911,2148.418Z" transform="translate(-2153.047 -2064.648)"/><path class="h" d="M2196.495,2145.181a.5.5,0,0,1-.126.017h0a.485.485,0,0,1-.344-.828l5.324-5.324a.485.485,0,0,1,.687.687l-5.324,5.324A.482.482,0,0,1,2196.495,2145.181Z" transform="translate(-2149.505 -2061.109)"/><path class="h" d="M2732.011,1616.318a.166.166,0,0,1-.117-.283l5.324-5.324a.166.166,0,0,1,.235.235l-5.324,5.324A.166.166,0,0,1,2732.011,1616.318Z" transform="translate(-2641.153 -1576.542)"/><path class="h" d="M2728.6,1613.081a.484.484,0,0,1-.126.017h0a.485.485,0,0,1-.343-.829l5.324-5.324a.485.485,0,1,1,.686.686l-5.324,5.324A.479.479,0,0,1,2728.6,1613.081Z" transform="translate(-2637.614 -1573.003)"/><path class="h" d="M2205.235,1616.316a.166.166,0,0,1-.117-.049l-5.324-5.324a.166.166,0,0,1,.235-.235l5.324,5.324a.166.166,0,0,1-.117.283Z" transform="translate(-2153.047 -1576.541)"/><path class="h" d="M2201.819,1613.079a.481.481,0,0,1-.126.016h0a.481.481,0,0,1-.343-.142l-5.324-5.324a.485.485,0,0,1,.687-.686l5.324,5.324a.486.486,0,0,1-.217.812Z" transform="translate(-2149.505 -1573.001)"/><path class="h" d="M2737.335,2148.418a.166.166,0,0,1-.118-.049l-5.324-5.324a.166.166,0,0,1,.235-.235l5.324,5.324a.166.166,0,0,1-.117.283Z" transform="translate(-2641.153 -2064.648)"/><path class="h" d="M2733.919,2145.181a.493.493,0,0,1-.126.017h0a.483.483,0,0,1-.343-.142l-5.324-5.324a.485.485,0,0,1,.687-.686l5.324,5.324a.486.486,0,0,1-.217.812Z" transform="translate(-2637.612 -2061.109)"/><path class="h" d="M2498.158,1494.984a.166.166,0,0,1-.166-.166v-7.529a.166.166,0,0,1,.332,0v7.529A.166.166,0,0,1,2498.158,1494.984Z" transform="translate(-2426.635 -1463.218)"/><path class="h" d="M2494.74,1491.745a.484.484,0,0,1-.126.017h0a.486.486,0,0,1-.485-.485v-7.53a.485.485,0,1,1,.971,0v7.529A.486.486,0,0,1,2494.74,1491.745Z" transform="translate(-2423.092 -1459.675)"/><path class="h" d="M2498.158,2247.489a.166.166,0,0,1-.166-.166v-7.53a.166.166,0,0,1,.332,0v7.53A.166.166,0,0,1,2498.158,2247.489Z" transform="translate(-2426.635 -2153.505)"/><path class="h" d="M2494.742,2244.249a.5.5,0,0,1-.127.017.486.486,0,0,1-.485-.486v-7.529a.485.485,0,1,1,.971,0v7.529a.487.487,0,0,1-.359.469Z" transform="translate(-2423.092 -2149.962)"/><path class="h" d="M2083.9,1909.244h-7.529a.166.166,0,0,1,0-.332h7.529a.166.166,0,0,1,0,.332Z" transform="translate(-2039.723 -1850.133)"/><path class="h" d="M2080.485,1906a.487.487,0,0,1-.126.017h-7.53a.485.485,0,0,1,0-.971h7.53a.485.485,0,0,1,.126.954Z" transform="translate(-2036.18 -1846.591)"/><path class="h" d="M2836.406,1909.237h-7.53a.166.166,0,1,1,0-.332h7.53a.166.166,0,1,1,0,.332Z" transform="translate(-2730.01 -1850.127)"/><path class="h" d="M2832.989,1906a.5.5,0,0,1-.126.017h-7.53a.485.485,0,0,1,0-.971h7.53a.485.485,0,0,1,.126.954Z" transform="translate(-2726.466 -1846.584)"/><path class="h" d="M2199.911,2148.418a.166.166,0,0,1-.118-.284l5.324-5.324a.166.166,0,0,1,.235.235l-5.324,5.324A.167.167,0,0,1,2199.911,2148.418Z" transform="translate(-2153.047 -2064.648)"/><path class="h" d="M2196.495,2145.181a.5.5,0,0,1-.126.017h0a.485.485,0,0,1-.344-.828l5.324-5.324a.485.485,0,0,1,.687.687l-5.324,5.324A.482.482,0,0,1,2196.495,2145.181Z" transform="translate(-2149.505 -2061.109)"/><path class="h" d="M2732.011,1616.318a.166.166,0,0,1-.117-.283l5.324-5.324a.166.166,0,0,1,.235.235l-5.324,5.324A.166.166,0,0,1,2732.011,1616.318Z" transform="translate(-2641.153 -1576.542)"/><path class="h" d="M2728.6,1613.081a.484.484,0,0,1-.126.017h0a.485.485,0,0,1-.343-.829l5.324-5.324a.485.485,0,1,1,.686.686l-5.324,5.324A.479.479,0,0,1,2728.6,1613.081Z" transform="translate(-2637.614 -1573.003)"/><path class="h" d="M2205.235,1616.316a.166.166,0,0,1-.117-.049l-5.324-5.324a.166.166,0,0,1,.235-.235l5.324,5.324a.166.166,0,0,1-.117.283Z" transform="translate(-2153.047 -1576.541)"/><path class="h" d="M2201.819,1613.079a.481.481,0,0,1-.126.016h0a.481.481,0,0,1-.343-.142l-5.324-5.324a.485.485,0,0,1,.687-.686l5.324,5.324a.486.486,0,0,1-.217.812Z" transform="translate(-2149.505 -1573.001)"/><path class="h" d="M2737.335,2148.418a.166.166,0,0,1-.118-.049l-5.324-5.324a.166.166,0,0,1,.235-.235l5.324,5.324a.166.166,0,0,1-.117.283Z" transform="translate(-2641.153 -2064.648)"/><path class="h" d="M2733.919,2145.181a.493.493,0,0,1-.126.017h0a.483.483,0,0,1-.343-.142l-5.324-5.324a.485.485,0,0,1,.687-.686l5.324,5.324a.486.486,0,0,1-.217.812Z" transform="translate(-2637.612 -2061.109)"/><path class="h" d="M2115.124,1751.447a.164.164,0,0,1-.063-.013l-6.955-2.865a.166.166,0,0,1,.126-.307l6.955,2.865a.166.166,0,0,1-.063.32Z" transform="translate(-2068.89 -1702.755)"/><path class="h" d="M2111.708,1748.206a.49.49,0,0,1-.126.017h0a.48.48,0,0,1-.185-.037l-6.955-2.865a.486.486,0,0,1-.264-.634.485.485,0,0,1,.634-.264l6.956,2.865a.486.486,0,0,1-.059.917Z" transform="translate(-2065.348 -1699.21)"/><path class="h" d="M2810.978,2038.109a.165.165,0,0,1-.063-.013l-6.955-2.865a.166.166,0,1,1,.126-.307l6.955,2.865a.166.166,0,0,1-.063.32Z" transform="translate(-2707.211 -1965.715)"/><path class="h" d="M2807.563,2034.867a.494.494,0,0,1-.126.016h0a.482.482,0,0,1-.185-.037l-6.955-2.865a.485.485,0,1,1,.37-.9l6.955,2.865a.486.486,0,0,1-.058.918Z" transform="translate(-2703.67 -1962.171)"/><path class="h" d="M2337.5,2222.063a.169.169,0,0,1-.063-.012.166.166,0,0,1-.09-.217l2.865-6.955a.166.166,0,1,1,.307.127l-2.865,6.955A.166.166,0,0,1,2337.5,2222.063Z" transform="translate(-2279.263 -2130.708)"/><path class="h" d="M2334.087,2218.82a.482.482,0,0,1-.126.017h0a.486.486,0,0,1-.448-.67l2.865-6.955a.485.485,0,0,1,.9.37l-2.865,6.955A.483.483,0,0,1,2334.087,2218.82Z" transform="translate(-2275.72 -2127.163)"/><path class="h" d="M2624.158,1526.2a.166.166,0,0,1-.154-.229l2.865-6.955a.166.166,0,1,1,.307.127l-2.865,6.955A.166.166,0,0,1,2624.158,1526.2Z" transform="translate(-2542.218 -1492.383)"/><path class="h" d="M2620.743,1522.963a.49.49,0,0,1-.126.017h0a.48.48,0,0,1-.185-.037.486.486,0,0,1-.264-.634l2.865-6.955a.485.485,0,0,1,.9.37l-2.865,6.955A.483.483,0,0,1,2620.743,1522.963Z" transform="translate(-2538.676 -1488.839)"/><path class="h" d="M2628.231,2221.563a.166.166,0,0,1-.154-.1l-2.892-6.944a.166.166,0,1,1,.306-.128l2.892,6.944a.165.165,0,0,1-.09.217A.158.158,0,0,1,2628.231,2221.563Z" transform="translate(-2543.301 -2130.26)"/><path class="h" d="M2624.811,2218.32a.477.477,0,0,1-.125.017h0a.485.485,0,0,1-.448-.3l-2.892-6.944a.485.485,0,1,1,.9-.373l2.892,6.944a.486.486,0,0,1-.261.635A.435.435,0,0,1,2624.811,2218.32Z" transform="translate(-2539.756 -2126.713)"/><path class="h" d="M2338.888,1526.817a.167.167,0,0,1-.154-.1l-2.892-6.944a.166.166,0,1,1,.307-.128l2.892,6.944a.166.166,0,0,1-.153.23Z" transform="translate(-2277.881 -1492.955)"/><path class="h" d="M2335.471,1523.574a.476.476,0,0,1-.125.016h0a.484.484,0,0,1-.448-.3l-2.892-6.944a.485.485,0,0,1,.633-.635.481.481,0,0,1,.263.262l2.892,6.944a.486.486,0,0,1-.261.635A.456.456,0,0,1,2335.471,1523.574Z" transform="translate(-2274.339 -1489.41)"/><path class="h" d="M2108.79,2039.314a.166.166,0,0,1-.064-.32l6.944-2.892a.166.166,0,0,1,.128.307l-6.944,2.892A.166.166,0,0,1,2108.79,2039.314Z" transform="translate(-2069.46 -1966.796)"/><path class="h" d="M2105.372,2036.072a.486.486,0,0,1-.125.016h0a.485.485,0,0,1-.187-.934l6.944-2.892a.485.485,0,1,1,.373.9l-6.944,2.892A.457.457,0,0,1,2105.372,2036.072Z" transform="translate(-2065.918 -1963.251)"/><path class="h" d="M2803.536,1749.971a.166.166,0,0,1-.064-.319l6.944-2.892a.166.166,0,0,1,.128.307l-6.944,2.892A.165.165,0,0,1,2803.536,1749.971Z" transform="translate(-2706.765 -1701.376)"/><path class="h" d="M2800.116,1746.729a.485.485,0,0,1-.312-.917l6.944-2.892a.485.485,0,1,1,.373.9l-6.944,2.892A.464.464,0,0,1,2800.116,1746.729Z" transform="translate(-2703.219 -1697.831)"/><path class="h" d="M2115.124,1751.447a.164.164,0,0,1-.063-.013l-6.955-2.865a.166.166,0,0,1,.126-.307l6.955,2.865a.166.166,0,0,1-.063.32Z" transform="translate(-2068.89 -1702.755)"/><path class="h" d="M2111.708,1748.206a.49.49,0,0,1-.126.017h0a.48.48,0,0,1-.185-.037l-6.955-2.865a.486.486,0,0,1-.264-.634.485.485,0,0,1,.634-.264l6.956,2.865a.486.486,0,0,1-.059.917Z" transform="translate(-2065.348 -1699.21)"/><path class="h" d="M2810.978,2038.109a.165.165,0,0,1-.063-.013l-6.955-2.865a.166.166,0,1,1,.126-.307l6.955,2.865a.166.166,0,0,1-.063.32Z" transform="translate(-2707.211 -1965.715)"/><path class="h" d="M2807.563,2034.867a.494.494,0,0,1-.126.016h0a.482.482,0,0,1-.185-.037l-6.955-2.865a.485.485,0,1,1,.37-.9l6.955,2.865a.486.486,0,0,1-.058.918Z" transform="translate(-2703.67 -1962.171)"/><path class="h" d="M2337.5,2222.063a.169.169,0,0,1-.063-.012.166.166,0,0,1-.09-.217l2.865-6.955a.166.166,0,1,1,.307.127l-2.865,6.955A.166.166,0,0,1,2337.5,2222.063Z" transform="translate(-2279.263 -2130.708)"/><path class="h" d="M2334.087,2218.82a.482.482,0,0,1-.126.017h0a.486.486,0,0,1-.448-.67l2.865-6.955a.485.485,0,0,1,.9.37l-2.865,6.955A.483.483,0,0,1,2334.087,2218.82Z" transform="translate(-2275.72 -2127.163)"/><path class="h" d="M2624.158,1526.2a.166.166,0,0,1-.154-.229l2.865-6.955a.166.166,0,1,1,.307.127l-2.865,6.955A.166.166,0,0,1,2624.158,1526.2Z" transform="translate(-2542.218 -1492.383)"/><path class="h" d="M2620.743,1522.963a.49.49,0,0,1-.126.017h0a.48.48,0,0,1-.185-.037.486.486,0,0,1-.264-.634l2.865-6.955a.485.485,0,0,1,.9.37l-2.865,6.955A.483.483,0,0,1,2620.743,1522.963Z" transform="translate(-2538.676 -1488.839)"/><path class="h" d="M2628.231,2221.563a.166.166,0,0,1-.154-.1l-2.892-6.944a.166.166,0,1,1,.306-.128l2.892,6.944a.165.165,0,0,1-.09.217A.158.158,0,0,1,2628.231,2221.563Z" transform="translate(-2543.301 -2130.26)"/><path class="h" d="M2624.811,2218.32a.477.477,0,0,1-.125.017h0a.485.485,0,0,1-.448-.3l-2.892-6.944a.485.485,0,1,1,.9-.373l2.892,6.944a.486.486,0,0,1-.261.635A.435.435,0,0,1,2624.811,2218.32Z" transform="translate(-2539.756 -2126.713)"/><path class="h" d="M2338.888,1526.817a.167.167,0,0,1-.154-.1l-2.892-6.944a.166.166,0,1,1,.307-.128l2.892,6.944a.166.166,0,0,1-.153.23Z" transform="translate(-2277.881 -1492.955)"/><path class="h" d="M2335.471,1523.574a.476.476,0,0,1-.125.016h0a.484.484,0,0,1-.448-.3l-2.892-6.944a.485.485,0,0,1,.633-.635.481.481,0,0,1,.263.262l2.892,6.944a.486.486,0,0,1-.261.635A.456.456,0,0,1,2335.471,1523.574Z" transform="translate(-2274.339 -1489.41)"/><path class="h" d="M2108.79,2039.314a.166.166,0,0,1-.064-.32l6.944-2.892a.166.166,0,0,1,.128.307l-6.944,2.892A.166.166,0,0,1,2108.79,2039.314Z" transform="translate(-2069.46 -1966.796)"/><path class="h" d="M2105.372,2036.072a.486.486,0,0,1-.125.016h0a.485.485,0,0,1-.187-.934l6.944-2.892a.485.485,0,1,1,.373.9l-6.944,2.892A.457.457,0,0,1,2105.372,2036.072Z" transform="translate(-2065.918 -1963.251)"/><path class="h" d="M2803.536,1749.971a.166.166,0,0,1-.064-.319l6.944-2.892a.166.166,0,0,1,.128.307l-6.944,2.892A.165.165,0,0,1,2803.536,1749.971Z" transform="translate(-2706.765 -1701.376)"/><path class="h" d="M2800.116,1746.729a.485.485,0,0,1-.312-.917l6.944-2.892a.485.485,0,1,1,.373.9l-6.944,2.892A.464.464,0,0,1,2800.116,1746.729Z" transform="translate(-2703.219 -1697.831)"/><path class="f" d="M2361.575,1824.341a.959.959,0,0,1-.925-.248l-7.121-7.121a.958.958,0,1,1,1.354-1.355l6.444,6.443,14.553-14.553a.958.958,0,0,1,1.354,1.355l-15.23,15.23A.957.957,0,0,1,2361.575,1824.341Z" transform="translate(-2293.86 -1756.856)"/><path class="i" d="M2503.848,1927.588l31.92-31.407c8.383-8.248,20.348-12.961,32.906-12.961h0c2.949,0,5.34,1.874,5.34,4.185v83.943c0,2.312-3.987,5.822-6.937,5.822h-18.137l-45.093-44.368A3.572,3.572,0,0,1,2503.848,1927.588Z" transform="translate(-2430.97 -1826.566)"/><path class="i" d="M1705.114,1926.9l-31.92-31.407c-8.383-8.248-20.348-12.961-32.906-12.961h0c-2.949,0-5.34,1.874-5.34,4.185v84.447c0,2.311,3.423,5.375,6.372,5.375l18.7-.057,45.093-44.367A3.571,3.571,0,0,0,1705.114,1926.9Z" transform="translate(-1634.947 -1825.931)"/><path class="h" d="M1777.994,2270.5v18.1c0,2.706-2.853,4.9-6.372,4.9h-130.3c-3.519,0-6.372-2.193-6.372-4.9v-18.1l67.552-41.368a7.613,7.613,0,0,1,3.746-1.064,7.7,7.7,0,0,1,4.2,1.064Z" transform="translate(-1634.949 -2142.899)"/><path class="e" d="M2641.257,2284.735l58.872,30.049v7.7l-59.931-36.709Z" transform="translate(-2557.084 -2194.883)"/><path class="e" d="M1693.819,2284.735l-58.872,30.049v7.7l59.931-36.709Z" transform="translate(-1634.947 -2194.883)"/></g><g transform="translate(1163.79 748.301)"><circle class="g" cx="16.469" cy="16.469" r="16.469" transform="translate(0 23.29) rotate(-45)"/><path class="f" d="M3344.542,1932.3v-3.721a6.334,6.334,0,0,0-6.334-6.334h0a6.334,6.334,0,0,0-6.334,6.334v3.721c0,2.024-.554,2.8-1.6,4.528h15.876C3345.1,1935.1,3344.542,1934.324,3344.542,1932.3Z" transform="translate(-3314.918 -1906.891)"/><path class="f" d="M3399.753,2111.164h0a2.391,2.391,0,0,1-2.391-2.391h4.782A2.391,2.391,0,0,1,3399.753,2111.164Z" transform="translate(-3376.463 -2077.997)"/><path class="f" d="M3404.753,1898.779a1.94,1.94,0,1,0,1.94,1.94A1.94,1.94,0,0,0,3404.753,1898.779Zm0,3.106a1.166,1.166,0,1,1,1.166-1.166A1.166,1.166,0,0,1,3404.753,1901.885Z" transform="translate(-3381.463 -1885.365)"/><path class="j" d="M3202.841,1814.936a20.139,20.139,0,1,1,14.24-5.9A20.007,20.007,0,0,1,3202.841,1814.936Zm0-38.706a18.567,18.567,0,1,0,13.129,5.438A18.444,18.444,0,0,0,3202.841,1776.229Z" transform="translate(-3179.551 -1771.507)"/></g><g transform="translate(1165.057 702.724)"><path class="d" d="M3256.156,1257.175a.982.982,0,0,0-1.677-.695l-5.149,5.149a.982.982,0,1,0,1.389,1.389l5.149-5.149A.975.975,0,0,0,3256.156,1257.175Z" transform="translate(-3241.674 -1250.333)"/><path class="d" d="M3288.253,1393.311l-8.569-1.287a.982.982,0,1,0-.292,1.943l8.569,1.287a.982.982,0,0,0,.292-1.943Z" transform="translate(-3268.747 -1374.922)"/><path class="d" d="M3161.873,1186.141a.982.982,0,0,0-1.943.292l1.288,8.569a.981.981,0,0,0,1.117.825.982.982,0,0,0,.825-1.117Z" transform="translate(-3159.92 -1185.304)"/></g><g transform="translate(1013.415 685.336)"><g transform="translate(0 0)"><path class="k" d="M1352.269,1020.313l17.165,7.69,22.673-53-66.269,33.476,17.2,7.706" transform="translate(-1325.837 -974.999)"/><path class="b" d="M1543.144,1020.313,1582.982,975l-49.065,41.182,3.19,15.306Z" transform="translate(-1516.712 -974.999)"/><path class="b" d="M1572.5,1534.24l10.418-9.211-4.381-1.963Z" transform="translate(-1552.109 -1477.752)"/></g><g transform="translate(6.543 13.118)"><circle class="l" cx="7.996" cy="7.996" r="7.996" transform="translate(0.391 0.391)"/><circle class="d" cx="5.93" cy="5.93" r="5.93" transform="translate(0 8.387) rotate(-45)"/><path class="f" d="M1489.7,1196.377h-.02l-1.137.614-.171-.674,1.429-.765h.755v6.54h-.855Z" transform="translate(-1481.472 -1190.435)"/></g></g></g></svg>