<svg xmlns="http://www.w3.org/2000/svg" width="33.598" height="30.565" viewBox="0 0 33.598 30.565"><defs><style>.a{fill:#f5f5f5;stroke-width:1.2px;}.a,.b{stroke:#333;}.b,.c{fill:#f1f2f2;}.d{fill:#333;stroke:#f1f2f2;stroke-width:0.7px;}.e{stroke:none;}.f{fill:none;}</style></defs><g transform="translate(-290.822 -1235.276)"><g transform="translate(4.234 3.811)"><g transform="translate(286.765 1232.072)"><g transform="translate(11.565 0)"><path class="a" d="M386.266,12.016l-.735-.376a7.724,7.724,0,0,0,.153-1.9l.785-.254A2.093,2.093,0,0,0,385.185,5.5l-.785.254A7.727,7.727,0,0,0,383.162,4.3l.376-.735a2.093,2.093,0,1,0-3.727-1.908l-.377.737a7.783,7.783,0,0,0-1.9-.151l-.255-.79A2.093,2.093,0,1,0,373.3,2.739l.255.79A7.781,7.781,0,0,0,372.1,4.762l-.737-.377a2.093,2.093,0,0,0-1.908,3.727l.735.376a7.73,7.73,0,0,0-.153,1.9l-.785.254a2.093,2.093,0,1,0,1.286,3.984l.785-.254a7.727,7.727,0,0,0,1.237,1.454l-.376.735a2.093,2.093,0,1,0,3.727,1.908l.376-.736a7.73,7.73,0,0,0,1.567.164c.112,0,.224,0,.335-.008l.253.784a2.093,2.093,0,1,0,3.984-1.286l-.254-.785a7.724,7.724,0,0,0,1.454-1.237l.735.376a2.094,2.094,0,0,0,1.908-3.727Z" transform="translate(-367.797 -0.002)"/><g class="b" transform="translate(7.068 7.021)"><ellipse class="e" cx="3.016" cy="3.016" rx="3.016" ry="3.016"/><ellipse class="f" cx="3.016" cy="3.016" rx="2.516" ry="2.516"/></g></g><path class="c" d="M21.388,34.7l3.792-.584,2.806.118,4.544-2.285,13.015,1.26h5.636l.805,5.493S51.9,40.237,49.7,41.2s-5.874,2.4-7.247,2.884S31.568,46.006,30.4,46.418s-.658,3.009-3.61,2.392S23.7,49.975,22.945,47.2s-.7-1.75-1.245-3.947-2.261-7.273-2.261-7.273Z" transform="translate(-19.439 -19.159)"/><path class="d" d="M139.653,327.41l4.306-1.568a.764.764,0,0,1,.978.458l.261.717,4.989-1.819a.738.738,0,0,1,.393-.034L160.959,327a3.062,3.062,0,0,1,2.186,1.615l4.761-1.737a3.026,3.026,0,0,1,2.335.1,3.062,3.062,0,0,1,1.734,2.323,3.122,3.122,0,0,1-2.084,3.353l-15.684,5.709a.744.744,0,0,1-.261.047.766.766,0,0,1-.244-.04l-4.38-1.479-.466.169.261.718a.764.764,0,0,1-.458.979l-4.307,1.567a.737.737,0,0,1-.26.047.763.763,0,0,1-.718-.5l-4.179-11.484a.764.764,0,0,1,.459-.974Zm9.9,7.95,4.38,1.479,15.432-5.618a1.614,1.614,0,0,0,1.1-1.686,1.527,1.527,0,0,0-2.036-1.222l-4.956,1.8a3.31,3.31,0,0,1-.034.421,3.068,3.068,0,0,1-3.537,2.479l-8.6-1.516.266-1.5,8.595,1.516a1.538,1.538,0,0,0,1.77-1.234,1.415,1.415,0,0,0,0-.527.765.765,0,0,1-.013-.076.841.841,0,0,0-.053-.19,1.534,1.534,0,0,0-1.171-.983l-10.176-1.795-4.8,1.745,2.612,7.179.718-.26a.766.766,0,0,1,.506-.01Zm-5.006,3.27,2.871-1.045-3.657-10.048-2.871,1.045Zm0,0" transform="translate(-138.944 -310.762)"/></g></g></g></svg>