<svg width="12" height="12" viewBox="0 0 12 12" fill="none" xmlns="http://www.w3.org/2000/svg">
<path fill-rule="evenodd" clip-rule="evenodd" d="M11.4 10.7999C11.7312 10.7999 12 11.0687 12 11.3999C12 11.7311 11.7312 11.9999 11.4 11.9999H0.6C0.2688 11.9999 0 11.7311 0 11.3999C0 11.0687 0.2688 10.7999 0.6 10.7999H11.4ZM11.4 0C11.7312 0 12 0.2688 12 0.6V9C12 9.3312 11.7312 9.6 11.4 9.6H0.6C0.2688 9.6 0 9.3312 0 9V5.4C0 5.0688 0.2688 4.8 0.6 4.8H3.6V3C3.6 2.6688 3.8688 2.4 4.2 2.4H7.2V0.6C7.2 0.2688 7.4688 0 7.8 0H11.4ZM8.40015 8.40007H10.8001V1.20007H8.40015V8.40007ZM4.80029 8.40004H7.20029V3.60004H4.80029V8.40004ZM1.19971 8.4H3.59971V6H1.19971V8.4Z" fill="white"/>
</svg>
