<svg width="12" height="10" viewBox="0 0 12 10" fill="none" xmlns="http://www.w3.org/2000/svg">
<path fill-rule="evenodd" clip-rule="evenodd" d="M0.773333 5.83321L9.34451 5.83321L6.78333 8.57732C6.47922 8.90315 6.47922 9.4298 6.78333 9.75563C7.08744 10.0815 7.57899 10.0815 7.88309 9.75563L11.7719 5.58905C12.076 5.26322 12.076 4.73657 11.7719 4.41074L7.88309 0.244163C7.73143 0.0816664 7.53232 3.90577e-07 7.33321 4.07984e-07C7.1341 4.2539e-07 6.93499 0.0816664 6.78333 0.244163C6.47922 0.56999 6.47922 1.09664 6.78333 1.42247L9.34451 4.16658L0.773333 4.16658C0.343228 4.16658 -4.77337e-07 4.53991 -4.37123e-07 4.9999C-3.96909e-07 5.45989 0.343228 5.83321 0.773333 5.83321Z" fill="#C0964D"/>
</svg>
