<svg width="24" height="24" viewBox="0 0 24 24" fill="none" xmlns="http://www.w3.org/2000/svg">
<path fill-rule="evenodd" clip-rule="evenodd" d="M22 11.0001L4.661 11.0001L10.658 5.75307C11.074 5.38907 11.116 4.75707 10.753 4.34207C10.387 3.92407 9.756 3.88407 9.342 4.24707L1.342 11.2471C1.334 11.2541 1.331 11.2651 1.323 11.2721C1.25 11.3411 1.195 11.4241 1.146 11.5121C1.128 11.5421 1.101 11.5661 1.087 11.5991C1.032 11.7221 1 11.8561 1 12.0001C1 12.1441 1.032 12.2781 1.087 12.4011C1.101 12.4341 1.128 12.4581 1.146 12.4891C1.196 12.5761 1.25 12.6591 1.323 12.7281C1.331 12.7351 1.334 12.7461 1.342 12.7531L9.342 19.7531C9.531 19.9191 9.766 20.0001 10 20.0001C10.278 20.0001 10.555 19.8851 10.753 19.6581C11.116 19.2431 11.074 18.6111 10.658 18.2471L4.661 13.0001L22 13.0001C22.553 13.0001 23 12.5531 23 12.0001C23 11.4471 22.553 11.0001 22 11.0001Z" fill="#9E9E9E"/>
</svg>
