<svg width="22" height="16" viewBox="0 0 22 16" fill="none" xmlns="http://www.w3.org/2000/svg">
<path fill-rule="evenodd" clip-rule="evenodd" d="M21 7.00056L3.661 7.00056L9.658 1.75356C10.074 1.38956 10.116 0.757559 9.753 0.342559C9.387 -0.075441 8.756 -0.115441 8.342 0.247559L0.342001 7.24756C0.334001 7.25456 0.331001 7.26556 0.323001 7.27256C0.250001 7.34156 0.195001 7.42456 0.146001 7.51256C0.128001 7.54256 0.101001 7.56656 0.0870013 7.59956C0.0320013 7.72256 1.37368e-06 7.85656 1.39886e-06 8.00056C1.42404e-06 8.14456 0.0320014 8.27856 0.0870015 8.40156C0.101001 8.43456 0.128001 8.45856 0.146001 8.48956C0.196001 8.57656 0.250002 8.65956 0.323002 8.72856C0.331002 8.73556 0.334002 8.74656 0.342002 8.75356L8.342 15.7536C8.531 15.9196 8.766 16.0006 9 16.0006C9.278 16.0006 9.555 15.8856 9.753 15.6586C10.116 15.2436 10.074 14.6116 9.658 14.2476L3.661 9.00056L21 9.00056C21.553 9.00056 22 8.55356 22 8.00056C22 7.44756 21.553 7.00056 21 7.00056Z" fill="white"/>
</svg>
