<svg width="22" height="16" viewBox="0 0 22 16" fill="none" xmlns="http://www.w3.org/2000/svg">
<path fill-rule="evenodd" clip-rule="evenodd" d="M0.999999 8.99993L18.339 8.99993L12.342 14.2469C11.926 14.6109 11.884 15.2429 12.247 15.6579C12.613 16.0759 13.244 16.1159 13.658 15.7529L21.658 8.75293C21.666 8.74593 21.669 8.73493 21.677 8.72793C21.75 8.65893 21.805 8.57593 21.854 8.48793C21.872 8.45793 21.899 8.43393 21.913 8.40093C21.968 8.27793 22 8.14393 22 7.99993C22 7.85593 21.968 7.72193 21.913 7.59893C21.899 7.56593 21.872 7.54193 21.854 7.51093C21.804 7.42393 21.75 7.34093 21.677 7.27193C21.669 7.26493 21.666 7.25393 21.658 7.24693L13.658 0.246928C13.469 0.0809276 13.234 -7.17129e-05 13 -7.16924e-05C12.722 -7.16681e-05 12.445 0.114928 12.247 0.341928C11.884 0.756928 11.926 1.38893 12.342 1.75293L18.339 6.99993L0.999999 6.99993C0.447 6.99993 -7.47776e-07 7.44693 -6.99431e-07 7.99993C-6.51086e-07 8.55293 0.447 8.99993 0.999999 8.99993Z" fill="white"/>
</svg>
