<svg width="22" height="16" viewBox="0 0 22 16" fill="none" xmlns="http://www.w3.org/2000/svg">
<path fill-rule="evenodd" clip-rule="evenodd" d="M0.999999 8.99944L18.339 8.99944L12.342 14.2464C11.926 14.6104 11.884 15.2424 12.247 15.6574C12.613 16.0754 13.244 16.1154 13.658 15.7524L21.658 8.75244C21.666 8.74544 21.669 8.73444 21.677 8.72744C21.75 8.65844 21.805 8.57544 21.854 8.48744C21.872 8.45744 21.899 8.43344 21.913 8.40044C21.968 8.27744 22 8.14344 22 7.99944C22 7.85544 21.968 7.72144 21.913 7.59844C21.899 7.56544 21.872 7.54144 21.854 7.51044C21.804 7.42344 21.75 7.34044 21.677 7.27144C21.669 7.26444 21.666 7.25344 21.658 7.24644L13.658 0.24644C13.469 0.0804394 13.234 -0.000559994 13 -0.000559974C12.722 -0.000559949 12.445 0.11444 12.247 0.34144C11.884 0.75644 11.926 1.38844 12.342 1.75244L18.339 6.99944L0.999999 6.99944C0.447 6.99944 -7.47776e-07 7.44644 -6.99431e-07 7.99944C-6.51086e-07 8.55244 0.447 8.99944 0.999999 8.99944Z" fill="#9E9E9E"/>
</svg>
