<svg width="39" height="39" viewBox="0 0 39 39" fill="none" xmlns="http://www.w3.org/2000/svg">
<path d="M10.8162 4.61389H32.2747V32.51H10.8162V4.61389Z" fill="white"/>
<path d="M36.5664 6.18699L34.4205 4.38232V32.5101C34.4205 33.0793 34.1945 33.6251 33.792 34.0275C33.3896 34.4299 32.8438 34.656 32.2747 34.656H15.1079V36.8018H36.5664V6.18699Z" fill="white"/>
<path opacity="0.64" d="M36.5664 6.75972V36.8016H15.1079V34.6558H32.2747C32.8438 34.6558 33.3896 34.4297 33.792 34.0273C34.1945 33.6249 34.4205 33.079 34.4205 32.5099V2.46802H8.67032V32.5099C8.67032 33.079 8.8964 33.6249 9.29882 34.0273C9.70125 34.4297 10.2471 34.6558 10.8162 34.6558H12.962V36.8016C12.962 37.3707 13.1881 37.9166 13.5905 38.319C13.993 38.7214 14.5388 38.9475 15.1079 38.9475H36.5664C37.1355 38.9475 37.6813 38.7214 38.0837 38.319C38.4862 37.9166 38.7122 37.3707 38.7122 36.8016V6.75972H36.5664ZM10.8162 4.61387H32.2747V32.5099H32.2768L32.2747 33.5829V32.5099H10.8162V4.61387Z" fill="#605E5C"/>
<path d="M34.4205 0.530352C34.143 0.397508 33.8398 0.326491 33.5321 0.322205H10.8162C10.2471 0.322205 9.70125 0.548285 9.29882 0.95071C8.8964 1.35313 8.67032 1.89894 8.67032 2.46806V6.75976H34.4205V4.61391L35.4935 3.54098V1.93159L34.4205 0.530352Z" fill="#33C481"/>
<path d="M38.7122 8.90541V5.50209C38.7121 4.93302 38.486 4.3873 38.0835 3.98497L35.0493 0.950738C34.8663 0.774311 34.6534 0.631889 34.4205 0.530151V4.61371L38.7122 8.90541Z" fill="#21A366"/>
<path d="M29.0559 23.9266H24.7642C24.1741 23.9266 23.6913 24.4094 23.6913 24.9995C23.6913 25.5896 24.1741 26.0724 24.7642 26.0724H29.0559C29.646 26.0724 30.1288 25.5896 30.1288 24.9995C30.1288 24.4094 29.646 23.9266 29.0559 23.9266Z" fill="#134A2C"/>
<path d="M29.0559 19.6348H24.7642C24.1741 19.6348 23.6913 20.1176 23.6913 20.7078C23.6913 21.2979 24.1741 21.7807 24.7642 21.7807H29.0559C29.646 21.7807 30.1288 21.2979 30.1288 20.7078C30.1288 20.1176 29.646 19.6348 29.0559 19.6348Z" fill="#21A366"/>
<path d="M29.0559 15.3431H24.7642C24.1741 15.3431 23.6913 15.826 23.6913 16.4161C23.6913 17.0062 24.1741 17.489 24.7642 17.489H29.0559C29.646 17.489 30.1288 17.0062 30.1288 16.4161C30.1288 15.826 29.646 15.3431 29.0559 15.3431Z" fill="#33C481"/>
<path d="M2.23276 32.51H19.3996C19.9687 32.51 20.5145 32.2839 20.9169 31.8815C21.3193 31.479 21.5454 30.9332 21.5454 30.3641V13.1973C21.5454 12.6282 21.3193 12.0824 20.9169 11.68C20.5145 11.2775 19.9687 11.0515 19.3996 11.0515H2.23276C1.66365 11.0515 1.11784 11.2775 0.715419 11.68C0.312994 12.0824 0.0869141 12.6282 0.0869141 13.1973V30.3641C0.0869141 30.9332 0.312994 31.479 0.715419 31.8815C1.11784 32.2839 1.66365 32.51 2.23276 32.51Z" fill="#107C41"/>
<path d="M7.82385 28.2182L15.7785 15.3431H13.2829L5.22522 28.2182H7.82385Z" fill="white"/>
<path d="M13.7624 28.2182L5.80988 15.3431H8.30336L16.3589 28.2182H13.7624Z" fill="white"/>
</svg>
