<svg width="96" height="81" viewBox="0 0 96 81" fill="none" xmlns="http://www.w3.org/2000/svg">
<path d="M65.8647 63.0003L19.6901 73.9805C18.8959 74.1676 18.0939 73.6763 17.907 72.8809L3.24478 11.0471C3.05791 10.2516 3.54846 9.44839 4.3427 9.25343L32.7872 2.49219L56.5519 17.3092L66.9704 61.23C67.1495 62.0255 66.659 62.8131 65.8647 63.0003Z" fill="#E0E0E0"/>
<path d="M62.7065 61.9495L16.5319 72.9297C15.7377 73.1169 14.9357 72.6255 14.7488 71.8301L0.0865808 9.99629C-0.100298 9.20085 0.390262 8.39761 1.1845 8.20265L29.629 1.44141L53.3937 16.2584L63.8122 60.1792C63.9913 60.9747 63.5008 61.7623 62.7065 61.9495Z" fill="white"/>
<path d="M53.3945 16.2428L29.6297 1.44141L28.1191 1.80013L33.7177 25.406L54.399 20.4852L53.3945 16.2428Z" fill="#E6E6E6"/>
<path d="M53.3547 16.0791L34.1841 20.6412L29.6289 1.44141L53.3547 16.0791Z" fill="white"/>
<path d="M47.1501 23.447L12.998 31.5703L18.1385 53.2475L52.2906 45.1242L47.1501 23.447Z" fill="#9DC4D4"/>
<path d="M25.946 43.5195L20.2773 52.7373L35.1498 49.1968L25.946 43.5195Z" fill="#FAFAFA"/>
<path d="M32.1362 35.1537C32.619 37.1735 31.3732 39.2011 29.3564 39.6846C27.3397 40.1681 25.3152 38.9204 24.8324 36.9006C24.3496 34.8808 25.5955 32.8532 27.6122 32.3697H27.6278C29.6367 31.8862 31.6613 33.1339 32.1362 35.1537Z" fill="#FAFAFA"/>
<path d="M75.7848 80.2108L36.1849 61.7376C35.4984 61.4259 35.2055 60.61 35.5167 59.9224V59.904L60.1865 6.86815C60.5069 6.18056 61.3216 5.88719 62.0082 6.20807L86.3851 17.6037L95.1088 41.8801L77.5881 79.5507C77.2677 80.2383 76.4622 80.5317 75.7757 80.2108H75.7848Z" fill="#E0E0E0" fill-opacity="0.8"/>
<path d="M75.2558 77.435L34.1736 58.2703C33.4613 57.9469 33.1574 57.1005 33.4803 56.3871V56.3681L59.0736 1.34694C59.406 0.633615 60.2512 0.329263 60.9634 0.662148L86.2528 12.4843L95.3031 37.6695L77.1266 76.7502C76.7942 77.4635 75.9585 77.7679 75.2463 77.435H75.2558Z" fill="white"/>
<path d="M95.3136 37.6705L86.2634 12.4854L84.9243 11.8672L75.1523 32.8675L93.5567 41.4464L95.3136 37.6705Z" fill="#E0E0E0"/>
<path d="M95.3798 37.5269L78.3145 29.5757L86.2631 12.4844L95.3798 37.5269Z" fill="white"/>
<path d="M77.116 61.8393L46.7269 47.6584C44.6756 46.7073 42.8808 49.7508 44.9415 50.7114L75.3306 64.8828C77.3819 65.8339 79.1767 62.7999 77.116 61.8393Z" fill="#486F99"/>
<path d="M53.9269 31.4211L84.316 45.602C86.3578 46.5531 88.1146 43.5096 86.0919 42.549L55.7028 28.3776C53.661 27.4265 51.9042 30.4605 53.9269 31.4211Z" fill="#486F99"/>
<path d="M49.2258 41.3195L79.6148 55.5004C81.6566 56.4515 83.4135 53.408 81.3907 52.4474L51.0016 38.276C48.9599 37.3249 47.203 40.3589 49.2258 41.3195Z" fill="#486F99"/>
</svg>
