<svg width="37" height="42" viewBox="0 0 37 42" fill="none" xmlns="http://www.w3.org/2000/svg">
<path d="M31.9545 14.6392H26.2652C24.3832 14.6392 22.8517 13.1076 22.8517 11.2256V3.26068H4.64612V39.6718H31.9545V14.6392Z" fill="white"/>
<path d="M31.9545 12.3635L25.1274 4.86963V11.2257C25.1274 11.8515 25.6394 12.3635 26.2652 12.3635H31.9545Z" fill="white"/>
<path opacity="0.64" d="M33.5634 10.7546L25.1274 1.65176C24.7007 1.22496 24.122 0.985114 23.5185 0.984985H4.64612C4.04257 0.984985 3.46373 1.22475 3.03696 1.65152C2.61018 2.0783 2.37042 2.65713 2.37042 3.26068V39.6718C2.37042 40.2754 2.61018 40.8542 3.03696 41.281C3.46373 41.7078 4.04257 41.9475 4.64612 41.9475H31.9545C32.558 41.9475 33.1369 41.7078 33.5636 41.281C33.9904 40.8542 34.2302 40.2754 34.2302 39.6718V12.3635C34.2301 11.76 33.9902 11.1812 33.5634 10.7546ZM31.9545 12.3635H26.2652C25.9636 12.3629 25.6746 12.2428 25.4613 12.0295C25.2481 11.8163 25.128 11.5272 25.1274 11.2256V4.8696L31.9545 12.3635ZM4.64612 39.2167V3.71582C4.64612 3.46549 4.85093 3.26068 5.10126 3.26068H22.8517V11.2256C22.8517 12.1309 23.2113 12.9992 23.8515 13.6394C24.4917 14.2795 25.3599 14.6392 26.2652 14.6392H31.9545V39.2167C31.9545 39.3374 31.9065 39.4532 31.8212 39.5385C31.7358 39.6239 31.6201 39.6718 31.4993 39.6718H5.10126C4.98055 39.6718 4.86478 39.6239 4.77943 39.5385C4.69407 39.4532 4.64612 39.3374 4.64612 39.2167Z" fill="#605E5C"/>
<path d="M28.5409 21.4662H8.05966C7.75789 21.4662 7.46847 21.3464 7.25508 21.133C7.04169 20.9196 6.92181 20.6302 6.92181 20.3284C6.92181 20.0266 7.04169 19.7372 7.25508 19.5238C7.46847 19.3104 7.75789 19.1906 8.05966 19.1906H28.5409C28.8427 19.1906 29.1321 19.3104 29.3455 19.5238C29.5589 19.7372 29.6788 20.0266 29.6788 20.3284C29.6788 20.6302 29.5589 20.9196 29.3455 21.133C29.1321 21.3464 28.8427 21.4662 28.5409 21.4662Z" fill="#C8C6C4"/>
<path d="M24.6609 35.1204H11.9284C11.8076 35.1204 11.6919 35.0725 11.6065 34.9871C11.5212 34.9018 11.4732 34.786 11.4732 34.6653V26.4728C11.4732 26.2225 11.678 26.0176 11.9284 26.0176H24.6723C24.9226 26.0176 25.1274 26.2088 25.1274 26.4591C25.1183 28.002 25.1001 33.1315 25.1137 34.6744C25.1144 34.7339 25.103 34.793 25.0802 34.848C25.0575 34.903 25.0238 34.9528 24.9813 34.9945C24.9388 35.0361 24.8883 35.0688 24.8328 35.0904C24.7774 35.1121 24.7181 35.1223 24.6586 35.1204H24.6609ZM9.19751 26.0176V35.1204C9.19751 35.724 9.43727 36.3028 9.86405 36.7296C10.2908 37.1564 10.8697 37.3961 11.4732 37.3961H25.1274C25.7309 37.3961 26.3098 37.1564 26.7366 36.7296C27.1633 36.3028 27.4031 35.724 27.4031 35.1204V26.0176C27.4031 25.4141 27.1633 24.8353 26.7366 24.4085C26.3098 23.9817 25.7309 23.7419 25.1274 23.7419H11.4732C10.8697 23.7419 10.2908 23.9817 9.86405 24.4085C9.43727 24.8353 9.19751 25.4141 9.19751 26.0176ZM6.35289 35.1204H2.37042C1.76687 35.1204 1.18804 34.8807 0.761263 34.4539C0.334487 34.0271 0.0947266 33.4483 0.0947266 32.8447V28.2933C0.0947266 27.6898 0.334487 27.111 0.761263 26.6842C1.18804 26.2574 1.76687 26.0176 2.37042 26.0176H6.35289C6.50378 26.0176 6.64849 26.0776 6.75518 26.1843C6.86188 26.291 6.92182 26.4357 6.92182 26.5866V34.5515C6.92182 34.7024 6.86188 34.8471 6.75518 34.9538C6.64849 35.0605 6.50378 35.1204 6.35289 35.1204ZM34.2302 35.1204H30.2477C30.0968 35.1204 29.9521 35.0605 29.8454 34.9538C29.7387 34.8471 29.6788 34.7024 29.6788 34.5515V26.5866C29.6788 26.4357 29.7387 26.291 29.8454 26.1843C29.9521 26.0776 30.0968 26.0176 30.2477 26.0176H34.2302C34.8337 26.0176 35.4126 26.2574 35.8393 26.6842C36.2661 27.111 36.5059 27.6898 36.5059 28.2933V32.8447C36.5059 33.4483 36.2661 34.0271 35.8393 34.4539C35.4126 34.8807 34.8337 35.1204 34.2302 35.1204Z" fill="#D65532"/>
</svg>
