<svg width="42" height="41" viewBox="0 0 42 41" fill="none" xmlns="http://www.w3.org/2000/svg">
<path d="M18.8246 11.3636L11.9975 3.86969V10.2257C11.9975 10.8515 12.5095 11.3636 13.1353 11.3636H18.8246Z" fill="white"/>
<path d="M39.1677 13.8459H33.5215C31.6538 13.8459 30.1338 12.3259 30.1338 10.4581V2.55347H12.066V38.6891H39.1677V13.8459Z" fill="white"/>
<path d="M39.1676 11.5874L32.3922 4.15027V10.4582C32.3922 11.0793 32.9003 11.5874 33.5214 11.5874H39.1676Z" fill="white"/>
<path opacity="0.64" d="M40.764 9.99057L32.3918 0.956656C31.9684 0.53308 31.394 0.29505 30.7951 0.294922H12.0655C11.4666 0.294922 10.8921 0.532868 10.4686 0.956414C10.045 1.37996 9.80707 1.95441 9.80707 2.5534V38.689C9.80707 39.288 10.045 39.8625 10.4686 40.286C10.8921 40.7096 11.4666 40.9475 12.0655 40.9475H39.1673C39.7663 40.9475 40.3407 40.7096 40.7643 40.286C41.1878 39.8625 41.4257 39.288 41.4257 38.689V11.5873C41.4256 10.9884 41.1876 10.414 40.764 9.99057ZM39.1673 11.5873H33.5211C33.2218 11.5867 32.9349 11.4675 32.7232 11.2559C32.5116 11.0443 32.3924 10.7574 32.3918 10.4581V4.15014L39.1673 11.5873ZM12.0655 38.2373V3.00509C12.0655 2.75666 12.2688 2.5534 12.5172 2.5534H30.1334V10.4581C30.1334 11.3565 30.4903 12.2182 31.1256 12.8535C31.7609 13.4889 32.6226 13.8458 33.5211 13.8458H39.1673V38.2373C39.1673 38.3571 39.1197 38.472 39.035 38.5567C38.9503 38.6414 38.8354 38.689 38.7156 38.689H12.5172C12.3974 38.689 12.2826 38.6414 12.1978 38.5567C12.1131 38.472 12.0655 38.3571 12.0655 38.2373Z" fill="#605E5C"/>
<path d="M34.5374 22.8797H30.1334L27.8749 20.6212L25.6164 22.8797V28.501C26.5627 29.2147 27.7281 29.6551 29.0041 29.6551C29.8415 29.6553 30.6684 29.4692 31.425 29.1104C32.1815 28.7515 32.8488 28.2289 33.3785 27.5803C33.9081 26.9318 34.2869 26.1735 34.4873 25.3605C34.6878 24.5475 34.7049 23.7001 34.5374 22.8797Z" fill="#ED6C47"/>
<path d="M29.0041 18.3627C27.7796 18.3652 26.5896 18.769 25.6164 19.5122V22.8796H30.1334V18.4756C29.7617 18.4003 29.3834 18.3624 29.0041 18.3627Z" fill="#FF8F6B"/>
<path d="M32.3922 20.6212H36.9091C36.6813 19.5087 36.1319 18.4875 35.3289 17.6845C34.5259 16.8815 33.5047 16.332 32.3922 16.1042V20.6212Z" fill="#FFC7B5"/>
<path d="M3.03191 34.1721H21.0997C21.6987 34.1721 22.2732 33.9342 22.6967 33.5106C23.1203 33.0871 23.3582 32.5126 23.3582 31.9136V13.8458C23.3582 13.2468 23.1203 12.6724 22.6967 12.2488C22.2732 11.8253 21.6987 11.5873 21.0997 11.5873H3.03191C2.43293 11.5873 1.85848 11.8253 1.43493 12.2488C1.01138 12.6724 0.773438 13.2468 0.773438 13.8458V31.9136C0.773438 32.5126 1.01138 33.0871 1.43493 33.5106C1.85848 33.9342 2.43293 34.1721 3.03191 34.1721Z" fill="#C43E1C"/>
<path d="M12.2455 16.1042C13.6458 16.1042 14.7208 16.4656 15.4639 17.1906C16.2092 17.9155 16.5818 18.9657 16.5818 20.3366C16.5818 21.2174 16.3989 22.0034 16.0285 22.69C15.6581 23.3788 15.1364 23.9118 14.4566 24.2935C13.7335 24.6852 12.9209 24.8821 12.0987 24.8649H9.80637V29.6551H7.575V16.1042H12.2455ZM9.80637 22.8797H11.8367C12.9818 22.8797 14.3233 22.6493 14.3233 20.6212C14.3233 18.3447 12.8756 18.3356 11.909 18.3356H9.80637V22.8797Z" fill="#F9F7F7"/>
</svg>
