<svg width="23" height="24" viewBox="0 0 23 24" fill="none" xmlns="http://www.w3.org/2000/svg">
<path fill-rule="evenodd" clip-rule="evenodd" d="M4.14844 10C4.14844 6.691 6.83944 4 10.1484 4C13.4574 4 16.1484 6.691 16.1484 10C16.1484 13.309 13.4574 16 10.1484 16C6.83944 16 4.14844 13.309 4.14844 10ZM21.8554 20.293L16.4604 14.897C17.5144 13.543 18.1484 11.846 18.1484 10C18.1484 5.589 14.5594 2 10.1484 2C5.73744 2 2.14844 5.589 2.14844 10C2.14844 14.411 5.73744 18 10.1484 18C11.9944 18 13.6904 17.365 15.0454 16.312L20.4414 21.707C20.6364 21.902 20.8924 22 21.1484 22C21.4044 22 21.6604 21.902 21.8554 21.707C22.2464 21.316 22.2464 20.684 21.8554 20.293Z" fill="#00003C"/>
</svg>
