<svg width="43" height="43" viewBox="0 0 43 43" fill="none" xmlns="http://www.w3.org/2000/svg">
<path d="M39.9988 14.7649H34.2596C32.3612 14.7649 30.8162 13.2199 30.8162 11.3214V3.28668H12.451V40.017H39.9988V14.7649Z" fill="white"/>
<path d="M39.9987 12.4693L33.1118 4.90979V11.3215C33.1118 11.9528 33.6283 12.4693 34.2596 12.4693H39.9987Z" fill="white"/>
<path opacity="0.64" d="M41.6218 10.8463L33.1118 1.66371C32.6814 1.23317 32.0976 0.991219 31.4888 0.991089H12.451C11.8422 0.991089 11.2583 1.23295 10.8278 1.66347C10.3973 2.09398 10.1554 2.67789 10.1554 3.28673V40.017C10.1554 40.6258 10.3973 41.2098 10.8278 41.6403C11.2583 42.0708 11.8422 42.3126 12.451 42.3126H39.9987C40.6076 42.3126 41.1915 42.0708 41.622 41.6403C42.0525 41.2098 42.2944 40.6258 42.2944 40.017V12.4693C42.2943 11.8605 42.0523 11.2767 41.6218 10.8463ZM39.9987 12.4693H34.2596C33.9554 12.4687 33.6638 12.3476 33.4487 12.1324C33.2335 11.9173 33.1124 11.6257 33.1118 11.3215V4.90975L39.9987 12.4693ZM12.451 39.5579V3.74586C12.451 3.49334 12.6576 3.28673 12.9102 3.28673H30.8162V11.3215C30.8162 12.2347 31.179 13.1106 31.8247 13.7564C32.4705 14.4021 33.3464 14.7649 34.2596 14.7649H39.9987V39.5579C39.9987 39.6796 39.9504 39.7964 39.8643 39.8825C39.7782 39.9686 39.6614 40.017 39.5396 40.017H12.9102C12.7884 40.017 12.6716 39.9686 12.5855 39.8825C12.4994 39.7964 12.451 39.6796 12.451 39.5579Z" fill="#605E5C"/>
<path d="M36.5553 26.2431H26.2249V28.5387H36.5553C36.8597 28.5387 37.1517 28.4178 37.3669 28.2026C37.5822 27.9873 37.7031 27.6953 37.7031 27.3909C37.7031 27.0865 37.5822 26.7945 37.3669 26.5793C37.1517 26.364 36.8597 26.2431 36.5553 26.2431Z" fill="#185ABD"/>
<path d="M36.5553 21.6519H26.2249V23.9475H36.5553C36.8597 23.9475 37.1517 23.8266 37.3669 23.6113C37.5822 23.3961 37.7031 23.1041 37.7031 22.7997C37.7031 22.4953 37.5822 22.2033 37.3669 21.988C37.1517 21.7728 36.8597 21.6519 36.5553 21.6519Z" fill="#2B7CD3"/>
<path d="M36.5553 17.0605H26.2249V19.3562H36.5553C36.8597 19.3562 37.1517 19.2353 37.3669 19.02C37.5822 18.8047 37.7031 18.5128 37.7031 18.2084C37.7031 17.9039 37.5822 17.612 37.3669 17.3967C37.1517 17.1815 36.8597 17.0605 36.5553 17.0605Z" fill="#41A5EE"/>
<path d="M3.26848 35.4257H21.6336C22.2425 35.4257 22.8264 35.1839 23.2569 34.7533C23.6874 34.3228 23.9293 33.7389 23.9293 33.1301V14.7649C23.9293 14.1561 23.6874 13.5722 23.2569 13.1417C22.8264 12.7112 22.2425 12.4693 21.6336 12.4693H3.26848C2.65964 12.4693 2.07573 12.7112 1.64522 13.1417C1.2147 13.5722 0.972839 14.1561 0.972839 14.7649V33.1301C0.972839 33.7389 1.2147 34.3228 1.64522 34.7533C2.07573 35.1839 2.65964 35.4257 3.26848 35.4257Z" fill="#185ABD"/>
<path d="M15.2285 30.6875L12.4508 20.4949L9.68222 30.6875H7.67124L5.0014 17.2764H7.03534L8.89022 26.0595L11.3557 17.2764H13.3438L15.9906 26.2661L17.8317 17.2764H19.8634L17.2372 30.6875H15.2285Z" fill="white"/>
</svg>
